Alicia Keys - Brand New Me {M4A+MP4} (1080p) x264 [VX] [P2PDL]
 
http://www.shotpix.com/images/97516351394213794099.jpg


Release Title: Alicia Keys - Brand New Me (2012)


                                   1080p Full HD MP4 Video
                                            +
                                   128 Kbps/VBR M4A Audio

General
Complete name                  : Alicia Keys - Brand New Me (1080p) x264 [VX] [P2PDL].mp4
Format                         : MPEG-4
Format profile                 : Base Media / Version 2
Codec ID                       : mp42
File size                      : 43.0 MiB
Duration                       : 4mn 41s

Video
ID                             : 1
Format                         : AVC
Format/Info                    : Advanced Video Codec
Width                          : 1 920 pixels
Height                         : 1 080 pixels
Display aspect ratio           : 16:9
Frame rate mode                : Variable
Frame rate                     : 23.976 fps
Color space                    : YUV
Chroma subsampling             : 4:2:0
Bit depth                      : 8 bits
Scan type                      : Progressive
Bits/(Pixel*Frame)             : 0.023
Stream size                    : 38.7 MiB (90%)
Writing library                : x264 core 128

Audio
ID                             : 2
Format                         : AAC
Format/Info                    : Advanced Audio Codec
Format profile                 : LC
Codec ID                       : 40
Duration                       : 4mn 41s
Bit rate mode                  : Variable
Bit rate                       : 124 Kbps
Maximum bit rate               : 204 Kbps
Channel(s)                     : 2 channels
Channel positions              : Front: L R
Sampling rate                  : 48.0 KHz
Compression mode               : Lossy
Stream size                    : 4.14 MiB (10%)


Subtitles                      : No

Screens:
 
http://www.shotpix.com/images/50678870033257589859.jpg 
http://www.shotpix.com/images/28812288531659656209.jpg

Thumbs:
 
http://www.shotpix.com/images/67692021574742520787.jpg

------------------------------------------------------------------------

Notes:

* Recommended to use latest version VLC Media Player.
* Install shark007 codecs in case of any kind of problem in playback (For non-VLC Media Player users).
* Alternatively, install Core AVC codecs, the fastest decoder that there is coupled with Community Center Codec Pack and play on Windows Media Player Classic.

Greets to: VYTO, a2zRG, staff members at ExtraTorrent, TPB,KAT, 1337x, PublicHD, Ahashare, TorrentMafia, BTScene, P2PDL, and all others

Encoder Notes: Looking For Early Access To Anything You Can Provide DVDScr, R5, DVDRips, BluRay, Direct Audio, Early Music
Releases, Seedboxes, Links, Dedicated Servers anything u can provide, Advance / Promo CDs/DVDs. If You Got anything to
offer contact me at "prg@hush.com"

Facebook Fan Page: www . facebook . com / p2pdl